<svg version="1" xmlns="http://www.w3.org/2000/svg" viewBox="0 0 87.572 100"><path d="M43.794 0c-6.385 0-11.575 5.01-11.575 11.196 0 4.554 2.815 8.479 6.844 10.23l-.119 5.802H7.877v6.134h30.929l-.936 44.47c-.018.897.008 9.934-12.405 3.687-12.449-6.265-5.414-13.36-4.578-13.569-7.314-2.253-13.943-8.514-19.297-14.944-5.254 11.458 4.155 23.688 4.609 25.433 1.129-1.21 2.818-1.017 3.853-.847C22.724 96.91 39.336 94.597 43.794 100c4.458-5.403 21.055-3.09 33.727-22.408 1.035-.17 2.724-.363 3.853.847.454-1.744 9.863-13.975 4.608-25.433C80.628 59.436 74 65.697 66.686 67.95c.835.209 7.87 7.305-4.578 13.569-12.413 6.247-12.386-2.789-12.405-3.687l-.938-44.47h30.932v-6.134H48.629l-.122-5.802c4.031-1.752 6.847-5.677 6.847-10.23C55.354 5.01 50.179 0 43.794 0zm0 7.101a4.096 4.096 0 0 1 0 8.19c-2.261 0-4.111-1.833-4.111-4.095 0-2.261 1.85-4.095 4.111-4.095z"/></svg>