<svg version="1" xmlns="http://www.w3.org/2000/svg" viewBox="0 0 99.94 98.44"><path d="M40.883 0H21.858v13.612h19.024V0zM62.348 58.74a3.255 3.255 0 0 1-3.259-3.26V17.873h28.739L99.94 69.184l-.062 3.318V95.18a3.168 3.168 0 0 1-3.169 3.169H68.774a3.17 3.17 0 0 1-3.169-3.169V58.74h-3.033M37.533 58.816a3.242 3.242 0 0 0 3.259-3.245V17.932h-28.71L-.06 69.247 0 72.592v22.679a3.178 3.178 0 0 0 3.169 3.169h27.936c1.774 0 3.2-1.427 3.2-3.169V58.816h2.986M54.858 17.932h-9.853v34.94h9.853v-34.94zM78.127 0H59.089v13.612h19.038V0z"/></svg>