<svg xmlns="http://www.w3.org/2000/svg" viewBox="-1672 1249.1 90 69.7"><path d="M-1619.1 1294.1c0 2-1.6 3.7-3.7 3.7h-8.6c-2 0-3.7-1.6-3.7-3.7v-3.3l-35.2-4.4v30.9c0 .9.7 1.6 1.6 1.6h83.1c.9 0 1.6-.7 1.6-1.6v-30.9l-35.2 4.4.1 3.3z"/><path d="M-1582.7 1260.7h-30.6V1254.5v-3.6c0-1-.8-1.7-1.7-1.7H-1638.9c-1 0-1.7.8-1.7 1.7V1260.7h-31.1c-.1 0-.2.2-.2.4v22.4c0 .2.2.4.4.4h.2l1.3.2 35.2 4.4v-2.8c0-1.7 1.1-3.1 2.6-3.5l-.7-20.2v-1.2h-3.5V1255.1c0-1 .8-1.7 1.7-1.7h15.8c1 0 1.7.8 1.7 1.7v5.7h-3.5v1.2l-.7 20.2c1.5.4 2.6 1.8 2.6 3.5v2.8l35.2-4.4 1.3-.2h.2c.2 0 .4-.2.4-.4v-22.4c-.3-.2-.6-.4-1-.4z"/><path d="M-1630.6 1261.9l.7 20h5.8l.7-20V1258.3c0-.3-.3-.5-.5-.5h-6.4c-.3 0-.5.2-.5.5v2.4l.2 1.2zM-1631 1284.8H-1631.3c-.4 0-.8.3-.8.8v8.6c0 .4.3.8.8.8h8.6c.4 0 .8-.3.8-.8V1285.6c0-.4-.3-.8-.8-.8h-8.2-.1z"/></svg>