<svg xmlns="http://www.w3.org/2000/svg" viewBox="-1702.5 1267.5 47 47"><path d="M-1665.5 1314.5h-27v-47h27v47zm-25-2h23v-43h-23v43z"/><path d="M-1655.5 1314.5h-12v-39h12v39zm-10-2h8v-35h-8v35zM-1690.5 1314.5h-12v-39h12v39zm-10-2h8v-35h-8v35zM-1673 1314.5h-12v-10h12v10zm-10-2h8v-6h-8v6z"/><path d="M-1662.5 1280.5h2v5h-2zM-1672 1274.5h2v5h-2zM-1677.3 1274.5h2v5h-2zM-1682.7 1274.5h2v5h-2zM-1688 1274.5h2v5h-2zM-1672 1284.5h2v5h-2zM-1677.3 1284.5h2v5h-2zM-1682.7 1284.5h2v5h-2zM-1688 1284.5h2v5h-2zM-1672 1294.5h2v5h-2zM-1677.3 1294.5h2v5h-2zM-1682.7 1294.5h2v5h-2zM-1688 1294.5h2v5h-2zM-1662.5 1288.5h2v5h-2zM-1662.5 1296.5h2v5h-2zM-1662.5 1304.5h2v5h-2zM-1697.5 1280.5h2v5h-2zM-1697.5 1288.5h2v5h-2zM-1697.5 1296.5h2v5h-2zM-1697.5 1304.5h2v5h-2z"/></svg>