<svg xmlns="http://www.w3.org/2000/svg" viewBox="0 0 100 100"><path d="M97.039 50.305c0-26.185-21.304-47.487-47.487-47.487-26.185 0-47.487 21.302-47.487 47.487 0 17.849 9.901 33.427 24.497 41.537l.052.033.037.017a47.181 47.181 0 0 0 22.901 5.899c9.25 0 17.889-2.661 25.196-7.255.023-.013.048-.021.07-.036.028-.018.056-.039.082-.058 13.295-8.425 22.139-23.267 22.139-40.137zM74.405 86.497l-.284-.453a1.783 1.783 0 1 0-3.019 1.9l.288.457a43.596 43.596 0 0 1-20.056 5.783v-.536a1.783 1.783 0 0 0-3.566 0v.536a43.582 43.582 0 0 1-17.851-4.602l.261-.471a1.783 1.783 0 1 0-3.121-1.726l-.261.473A44.278 44.278 0 0 1 13.411 75.23l.465-.294a1.784 1.784 0 0 0-1.9-3.019l-.476.3a43.6 43.6 0 0 1-5.827-20.066h.599a1.783 1.783 0 0 0 0-3.566h-.603a43.613 43.613 0 0 1 4.592-17.893l.548.303a1.783 1.783 0 0 0 1.724-3.121l-.549-.303a44.273 44.273 0 0 1 12.657-13.418l.342.542a1.778 1.778 0 0 0 2.458.559A1.784 1.784 0 0 0 28 12.795l-.347-.551a43.618 43.618 0 0 1 20.114-5.819v.666a1.783 1.783 0 0 0 3.566 0v-.668a43.607 43.607 0 0 1 17.907 4.629l-.315.574a1.78 1.78 0 0 0 1.558 2.646c.628 0 1.236-.333 1.562-.922l.313-.567a44.242 44.242 0 0 1 13.396 12.685l-.526.332a1.783 1.783 0 1 0 1.901 3.018l.531-.334a43.648 43.648 0 0 1 5.776 20.102h-.604a1.782 1.782 0 1 0 0 3.566h.598a43.596 43.596 0 0 1-4.639 17.865l-.497-.275a1.784 1.784 0 0 0-1.725 3.121l.489.271a44.236 44.236 0 0 1-12.653 13.363z"/><path d="M65.442 48.521H51.335V16.807a1.783 1.783 0 1 0-3.566 0v33.498c0 .273.063.531.173.763L26.875 72.022a.595.595 0 0 0 .839.843L48.78 51.91c.234.112.495.178.772.178h15.89a1.783 1.783 0 1 0 0-3.567z"/></svg>