<svg xmlns="http://www.w3.org/2000/svg" viewBox="-1665.9 1234 77.7 99.5"><path d="M-1589.3 1333.4h-75.5c-.4 0-.7-.2-.9-.5-.2-.3-.3-.7-.1-1l26.6-67.3v-25c-1.5-.1-2.6-1.3-2.6-2.8 0-1.6 1.3-2.8 2.8-2.8h24c1.6 0 2.8 1.3 2.8 2.8 0 1.5-1.2 2.7-2.6 2.8v25l26.6 67.3c.1.3.1.7-.1 1-.2.4-.6.5-1 .5zm-73.8-2.2h72.2l-26.1-66c-.1-.1-.1-.3-.1-.4v-26.3c0-.6.5-1.1 1.1-1.1h1c.3 0 .6-.3.6-.6s-.3-.6-.6-.6h-24c-.3 0-.6.3-.6.6s.3.6.6.6h1c.6 0 1.1.5 1.1 1.1v26.4c0 .1 0 .3-.1.4l-26.1 65.9z"/><path d="M-1658.8 1328.4l13.4-32.5h36.8l13.4 32.5z"/><path d="M-1608.8 1296.2l13.2 32h-62.8l13.2-32h36.4m.3-.5h-37l-13.7 33h64.4l-13.7-33z"/></svg>