<svg xmlns="http://www.w3.org/2000/svg" viewBox="-1471 977 512 512"><path d="M-969.7 1467.7h-32c0-5.9-4.8-10.7-10.7-10.7-5.9 0-10.7 4.8-10.7 10.7h-42.7c0-5.9-4.8-10.7-10.7-10.7-5.9 0-10.7 4.8-10.7 10.7h-42.7c0-5.9-4.8-10.7-10.7-10.7-5.9 0-10.7 4.8-10.7 10.7h-42.7c0-5.9-4.8-10.7-10.7-10.7-5.9 0-10.7 4.8-10.7 10.7h-42.7c0-5.9-4.8-10.7-10.7-10.7-5.9 0-10.7 4.8-10.7 10.7h-42.7c0-5.9-4.8-10.7-10.7-10.7-5.9 0-10.7 4.8-10.7 10.7h-42.7c0-5.9-4.8-10.7-10.7-10.7-5.9 0-10.7 4.8-10.7 10.7h-42.7V1425c5.9 0 10.7-4.8 10.7-10.7s-4.8-10.7-10.7-10.7V1361c5.9 0 10.7-4.8 10.7-10.7s-4.8-10.7-10.7-10.7V1297c5.9 0 10.7-4.8 10.7-10.7s-4.8-10.7-10.7-10.7V1233c5.9 0 10.7-4.8 10.7-10.7 0-5.9-4.8-10.7-10.7-10.7V1169c5.9 0 10.7-4.8 10.7-10.7 0-5.9-4.8-10.7-10.7-10.7V1105c5.9 0 10.7-4.8 10.7-10.7 0-5.9-4.8-10.7-10.7-10.7V1041c5.9 0 10.7-4.8 10.7-10.7 0-5.9-4.8-10.7-10.7-10.7v-32c0-5.9-4.8-10.7-10.7-10.7-5.9 0-10.7 4.8-10.7 10.7v490.7c0 5.9 4.8 10.7 10.7 10.7h490.7c5.9 0 10.7-4.8 10.7-10.7s-4.1-10.6-10-10.6z"/><path d="M-959 1073c0-5.9-4.8-10.7-10.7-10.7h-64c-5.9 0-10.7 4.8-10.7 10.7s4.8 10.7 10.7 10.7h38.2l-176.9 176.9-67.1-67.1c-1.9-1.9-4.6-3.1-7.5-3.1s-5.6 1.2-7.5 3.1l-149.3 149.3c-1.9 1.9-3.1 4.6-3.1 7.5 0 5.9 4.8 10.7 10.7 10.7 2.9 0 5.6-1.2 7.5-3.1l141.8-141.8 67.1 67.1c1.9 1.9 4.6 3.1 7.5 3.1 3 0 5.6-1.2 7.6-3.1l184.4-184.4v38.2c0 5.9 4.8 10.7 10.7 10.7 5.9 0 10.7-4.8 10.7-10.7v-64h-.1z"/></svg>