<svg xmlns="http://www.w3.org/2000/svg" viewBox="-1677 1254.1 100 59.8"><path d="M-1629.7 1271l1.5-1.2v-15.7l-23.2 12.2v47.6l23.2-12.2v-29.1l-1.5-1.6zm-18.3 25.9l-1.4-2 5.8-4.2 1.4 2-5.8 4.2zm8.4-6.8l-2-1.4 4.1-5.8 2 1.4-4.1 5.8zm6.4-8.4l-2.1-1.3 3.7-6.1 2.1 1.3-3.7 6.1zM-1654.9 1297.7l.3-2.4.8.2v-29.1l-23.2-12.2v27.5l3.4 3.4-1.7 1.7-1.7-1.7v16.6l23.2 12.2V1298l-1.1-.3zm-12.5-5.2l-5.8-3.8 1.3-2 5.8 3.8-1.3 2zm9.2 4.2l-6.5-2.3.8-2.3 6.5 2.3-.8 2.3zM-1625.8 1268.6l4.9.9-.5 2.4-4.5-.8v30.6l23.2 12.2v-47.6l-23.2-12.2v14.5zm15.2 10.5l5.4 4.3-1.5 1.9-5.4-4.3 1.5-1.9zm-6.9-7.5l4.9 4.9-1.7 1.7-4.9-4.9 1.7-1.7zM-1578.5 1267.3l1.5-1.2v-12l-23.2 12.2v21l6.3-1.6.6 2.4-6.9 1.8v24.1l23.2-12.2V1269l-1.5-1.7zm-11.1 17.9l-2-1.4 4.1-5.8 2 1.4-4.1 5.8zm5.8-8.6l-1.9-1.6 4.6-5.4 1.9 1.6-4.6 5.4z"/></svg>