<svg xmlns="http://www.w3.org/2000/svg" viewBox="-1670.3 1238.9 86.5 90"><path d="M-1589.5 1300.6c-5.7 4.8-13.3 5.1-16.9.8-3.6-4.3-1.9-11.7 3.8-16.5 5.7-4.8 13.3-5.1 16.9-.8 3.6 4.3 1.9 11.7-3.8 16.5zm-26.4-23.9c-3.7-4.8-1.6-13.3 4.8-19 6.3-5.7 14.5-6.4 18.2-1.5 3.7 4.8 1.6 13.3-4.8 19-6.4 5.6-14.5 6.3-18.2 1.5zm-8.3-2c10.6 5.1 8.9 17.3 10.7 22.6 2.1 6.2 9.8 14.4 4.6 23.7-5.2 9.3-14.7 9.3-21.4 5.7-6.7-3.5-9.5-8-13.3-9.7-3.9-1.7-8.6-.5-15.6-3.1-7.1-2.6-13.5-9.6-10.1-19.7 3.4-10.1 14.7-10 20.7-12.6 5.1-2.2 13.1-11.6 23.9-7.3.1 0 .2.1.3.1 0 .2.1.2.2.3 0-.1 0 0 0 0zm-7.4-5c-6.1.5-11-6-11.1-14.5-.1-8.5 4.8-15.8 10.9-16.3 6.1-.5 11 6 11.1 14.5 0 8.5-4.9 15.8-10.9 16.3zm-25.3 9.8c-5.6.2-10.5-5.6-10.8-13.1-.3-7.5 4-13.7 9.6-13.9 5.6-.2 10.5 5.6 10.8 13.1.4 7.4-3.9 13.6-9.6 13.9z"/></svg>