<svg xmlns="http://www.w3.org/2000/svg" viewBox="-1295 964 360 468"><path d="M-1048.3 964H-1295v468h360v-354.7L-1048.3 964zm5.3 30.7l77.3 77.3h-77.3v-77.3zm-234 419.3V982h216v108h108v324h-324z"/><path d="M-1218.1 1349.7c-3.7 0-7.3-1.2-10.3-3.5-11.1-8.4-12.6-17.6-11.9-24 1.9-17.4 23.5-35.6 64-54.2 16.1-35.2 31.4-78.7 40.5-114.9-10.7-23.2-21-53.4-13.5-71 2.6-6.2 7.3-10.5 13.5-12.6 2.4-.8 4.8-1.2 7.1-1.2 5.4 0 10.2 2.4 13.6 6.6 3.2 4 12.7 16.1-1.6 76.3 14.4 29.8 34.8 60.1 54.4 80.8 14-2.5 26.1-3.8 35.9-3.8 16.7 0 26.9 3.9 31 11.9 3.4 6.7 2 14.4-4.2 23.1-6 8.3-14.2 12.7-23.7 12.7-13 0-28.1-8.2-45-24.4-30.3 6.3-65.8 17.7-94.4 30.2-8.9 19-17.5 34.2-25.5 45.4-11.1 15.4-20.5 22.6-29.9 22.6zm28.5-54.8c-22.9 12.8-32.2 23.4-32.8 29.3-.1 1-.4 3.6 4.6 7.4 1.6-.5 10.9-4.7 28.2-36.7zm144.1-47.3c8.7 6.7 16.4 10.4 22.1 10.4 2.5 0 5.8-.6 9.1-5.2 1.6-2.2 2.2-3.7 2.5-4.4-1.3-.7-5.2-2.1-14.7-2.1-5.4-.1-11.8.4-19 1.3zm-78.2-70.6c-7.7 26.5-17.7 55-28.6 80.9 22.3-8.7 46.6-16.2 69.5-21.6-14.4-16.8-28.9-37.7-40.9-59.3zm-5.4-90.7c-.2 0-.6.1-1 .3-1 .3-1.9.9-2.6 2.6-2.8 6.4-.6 18.7 3.6 31.8 3.5-22.7 1.6-32.3 0-34.7z"/></svg>