<svg id="Layer_1" xmlns="http://www.w3.org/2000/svg" viewBox="0 0 243.7 172"><style>.st0{fill:#573c98}.st1,.st2{opacity:.6;fill:#008996;stroke:#000;stroke-width:.171;stroke-miterlimit:10}.st2{opacity:.8;fill:#edaa00}.st3{font-family:&apos;Univers-Condensed&apos;}.st4{font-size:8px}.st5,.st6,.st7{fill:none;stroke:#000;stroke-miterlimit:10}.st6,.st7{opacity:.8;fill:#edaa00;stroke-width:.5}.st7{opacity:.6;fill:#008996}</style><path d="M5 15.6V7.7h2.6c1.1 0 1.4.3 1.7.8.3.4.3.9.3 1.1 0 1-.3 1.6-1.4 1.9v.1c1.1.1 1.6.8 1.6 1.9 0 2-1.5 2.2-2.4 2.2H5zM6 11h1.5c.8 0 1.2-.5 1.2-1.3 0-.7-.4-1.2-1.2-1.2H6V11zm0 3.7h1.4c1.1 0 1.5-.8 1.5-1.4 0-1.3-.8-1.5-1.8-1.5H6v2.9zM10.9 7.7h1v1h-1v-1zm.9 7.9h-.9V10h.9v5.6zM13.8 10.9c.4-.8.9-.9 1.7-.9v.9h-.4c-1 0-1.3.8-1.3 1.5v3.3h-.9v-5.6h.9v.8zM18.9 7.7h.9v7.9h-.9v-.7c-.3.5-.7.8-1.3.8-.9 0-1.8-.4-1.8-2.8 0-1.4 0-3 1.8-3 .5 0 .9.2 1.2.7V7.7zm-1 3c-1 0-1.1.8-1.1 2.3 0 .8 0 2 1.1 2 1 0 1-1.3 1-2.4 0-.7 0-1.9-1-1.9zM22.6 15.7c-1.2 0-1.9-.5-1.9-1.8h1c0 .3 0 1.1.9 1.1.5 0 1-.3 1-.8 0-1-2.8-1-2.8-2.7 0-.6.4-1.5 1.9-1.5 1 0 1.8.5 1.8 1.6h-1c0-.6-.3-.9-.9-.9-.5 0-.9.3-.9.7 0 1 2.8 1 2.8 2.7 0 1.1-.8 1.6-1.9 1.6z"/><path class="st0" d="M4.3 20.9c0-1.5 0-2.9 1.5-2.9.8 0 1.4.5 1.4 1.4h-.8c0-.4-.2-.8-.6-.8-.6 0-.8.5-.8 2 .2-.4.6-.6.9-.6.7 0 1.3.4 1.3 1.9 0 1-.4 1.9-1.5 1.9-1.4-.1-1.4-1.5-1.4-2.9zm1.5 2.2c.6 0 .7-.7.7-1.4 0-.5-.1-1.1-.8-1.1-.6 0-.7.7-.7 1.2 0 .6.1 1.3.8 1.3zM10.2 18.1v.6H8.4v1.6c.1-.2.5-.4.9-.4.8 0 1.2.6 1.2 1.9 0 .9-.1 1.9-1.5 1.9-1.2 0-1.4-.6-1.4-1.4h.7c0 .4.2.8.7.8.7 0 .7-.7.7-1.2 0-.8 0-1.4-.7-1.4-.4 0-.6.3-.7.6h-.7V18h2.6zM13.6 20.9c0 1.4 0 2.9-1.5 2.9s-1.5-1.4-1.5-2.9 0-2.9 1.5-2.9 1.5 1.4 1.5 2.9zm-2.3.1c0 .9-.1 2.1.8 2.1.8 0 .8-1.2.8-2.1 0-1.5 0-2.4-.8-2.4s-.8.9-.8 2.4zM16.6 23.7c-.9 0-1.4-.4-1.4-1.3h.7c0 .2 0 .8.7.8.4 0 .7-.2.7-.6 0-.7-2-.7-2-1.9 0-.4.3-1.1 1.4-1.1.7 0 1.3.3 1.3 1.1h-.7c0-.4-.2-.6-.6-.6-.4 0-.6.2-.6.5 0 .7 2 .7 2 1.9-.1.8-.7 1.2-1.5 1.2zM19.3 20c.2-.4.5-.6.9-.6.6 0 1.3.3 1.3 2 0 1 0 2.2-1.3 2.2-.4 0-.7-.2-.9-.5V25h-.7v-5.6h.7v.6zm1.5 1.5c0-.6 0-1.5-.8-1.5s-.7 1.1-.7 1.7c0 .5 0 1.4.8 1.4.6.1.7-.5.7-1.6zM22.8 21.8c0 1.1.3 1.4.8 1.4.4 0 .7-.4.7-.8h.7c0 .9-.6 1.3-1.4 1.3-.9 0-1.5-.3-1.5-2 0-1.2.1-2.2 1.5-2.2 1.2 0 1.4.6 1.4 2v.3h-2.2zm1.6-.5c0-1.2-.3-1.3-.8-1.3-.4 0-.8.2-.8 1.3h1.6zM27.9 20.9c0-.7-.3-.8-.6-.8-.5 0-.8.2-.8 1.3 0 1.3.2 1.8.8 1.8.2 0 .6-.2.6-.9h.7c0 1.1-.8 1.4-1.3 1.4-.9 0-1.5-.3-1.5-2 0-1.2.1-2.2 1.5-2.2.8 0 1.3.5 1.2 1.4h-.6zM29.3 17.8h.7v.7h-.7v-.7zm.7 5.8h-.7v-4h.7v4zM31.4 21.8c0 1.1.3 1.4.8 1.4.4 0 .7-.4.7-.8h.7c0 .9-.6 1.3-1.4 1.3-.9 0-1.5-.3-1.5-2 0-1.2.1-2.2 1.5-2.2 1.2 0 1.4.6 1.4 2v.3h-2.2zm1.5-.5c0-1.2-.3-1.3-.8-1.3-.4 0-.8.2-.8 1.3h1.6zM35.5 23.7c-.9 0-1.4-.4-1.4-1.3h.7c0 .2 0 .8.7.8.4 0 .7-.2.7-.6 0-.7-2-.7-2-1.9 0-.4.3-1.1 1.4-1.1.7 0 1.3.3 1.3 1.1h-.7c0-.4-.2-.6-.6-.6-.4 0-.6.2-.6.5 0 .7 2 .7 2 1.9-.1.8-.7 1.2-1.5 1.2z"/><path d="M5.8 36.1h-.9v-7.9h1.6l2 6.7 2-6.7h1.7v7.9h-1V29L9 36.1H8L5.9 29v7.1zM16.4 30.6h.9V35c0 .4 0 .8.1 1.2h-1v-.7c-.3.5-.8.8-1.4.8-1 0-1.5-.5-1.5-1.4v-4.2h.9v3.9c0 .7.3 1.1.9 1.1.5 0 1.1-.4 1.1-1.3v-3.8zM20 36.2c-1.2 0-1.9-.5-1.9-1.8h1c0 .3 0 1.1.9 1.1.5 0 1-.3 1-.8 0-1-2.8-1-2.8-2.7 0-.6.4-1.5 1.9-1.5 1 0 1.8.5 1.8 1.6h-1c0-.6-.3-.9-.9-.9-.5 0-.9.3-.9.7 0 1 2.8 1 2.8 2.7 0 1.1-.8 1.6-1.9 1.6zM24.3 36.2c-1.2 0-1.9-.5-1.9-1.8h1c0 .3 0 1.1.9 1.1.5 0 1-.3 1-.8 0-1-2.8-1-2.8-2.7 0-.6.4-1.5 1.9-1.5 1 0 1.8.5 1.8 1.6h-1c0-.6-.3-.9-.9-.9-.5 0-.9.3-.9.7 0 1 2.8 1 2.8 2.7.1 1.1-.8 1.6-1.9 1.6zM27.9 33.6c0 1.6.4 1.9 1.1 1.9.6 0 .9-.5 1-1.1h1c0 1.2-.8 1.8-1.9 1.8-1.2 0-2.1-.4-2.1-2.8 0-1.6.2-3 2.1-3 1.6 0 2 .9 2 2.7v.5h-3.2zm2.2-.7c0-1.6-.5-1.8-1.1-1.8-.6 0-1 .3-1.1 1.8h2.2zM32.8 36.1h-.9v-7.9h.9v7.9zM35.5 36.2c-1.2 0-1.9-.5-1.9-1.8h1c0 .3 0 1.1.9 1.1.5 0 1-.3 1-.8 0-1-2.8-1-2.8-2.7 0-.6.4-1.5 1.9-1.5 1 0 1.8.5 1.8 1.6h-1c0-.6-.3-.9-.9-.9-.5 0-.9.3-.9.7 0 1 2.8 1 2.8 2.7 0 1.1-.8 1.6-1.9 1.6z"/><path class="st0" d="M4.3 44.1v-.6c1.6-2.3 2.1-2.7 2.1-3.6 0-.4-.2-.7-.7-.7-.6 0-.7.5-.6.9h-.7c-.1-.9.4-1.5 1.3-1.5 1 0 1.5.5 1.5 1.5 0 1.2-.6 1.7-2.1 3.5h2.2v.6h-3zM10.4 41.4c0 1.4 0 2.9-1.5 2.9-.8 0-1.4-.6-1.4-1.4h.7c0 .4.2.8.6.8.7 0 .8-.8.8-2.2-.2.4-.5.5-1 .5-.4 0-1.3-.2-1.3-1.8 0-1.2.7-1.7 1.5-1.7 1.6 0 1.6 1.4 1.6 2.9zm-2.2-1.2c0 .6.1 1.2.7 1.2s.7-.6.7-1.2c0-.5-.1-1.2-.7-1.2s-.7.7-.7 1.2zM10.5 38.6h2.9v.6l-1.5 4.9h-.8l1.6-4.9h-2.1v-.6zM16.6 44.2c-.9 0-1.4-.4-1.4-1.3h.7c0 .2 0 .8.7.8.4 0 .7-.2.7-.6 0-.7-2-.7-2-1.9 0-.4.3-1.1 1.4-1.1.7 0 1.3.3 1.3 1.1h-.7c0-.4-.2-.6-.6-.6-.4 0-.6.2-.6.5 0 .7 2 .7 2 1.9-.1.8-.7 1.2-1.5 1.2zM19.3 40.5c.2-.4.5-.6.9-.6.6 0 1.3.3 1.3 2 0 1 0 2.2-1.3 2.2-.4 0-.7-.2-.9-.5v1.9h-.7v-5.6h.7v.6zm1.5 1.5c0-.6 0-1.5-.8-1.5s-.7 1.1-.7 1.7c0 .5 0 1.4.8 1.4.6.1.7-.5.7-1.6zM22.8 42.3c0 1.1.3 1.4.8 1.4.4 0 .7-.4.7-.8h.7c0 .9-.6 1.3-1.4 1.3-.9 0-1.5-.3-1.5-2 0-1.2.1-2.2 1.5-2.2 1.2 0 1.4.6 1.4 2v.3h-2.2zm1.6-.5c0-1.2-.3-1.3-.8-1.3-.4 0-.8.2-.8 1.3h1.6zM27.9 41.4c0-.7-.3-.8-.6-.8-.5 0-.8.2-.8 1.3 0 1.3.2 1.8.8 1.8.2 0 .6-.2.6-.9h.7c0 1.1-.8 1.4-1.3 1.4-.9 0-1.5-.3-1.5-2 0-1.2.1-2.2 1.5-2.2.8 0 1.3.5 1.2 1.4h-.6zM29.3 38.3h.7v.7h-.7v-.7zm.7 5.8h-.7v-4h.7v4zM31.4 42.3c0 1.1.3 1.4.8 1.4.4 0 .7-.4.7-.8h.7c0 .9-.6 1.3-1.4 1.3-.9 0-1.5-.3-1.5-2 0-1.2.1-2.2 1.5-2.2 1.2 0 1.4.6 1.4 2v.3h-2.2zm1.5-.5c0-1.2-.3-1.3-.8-1.3-.4 0-.8.2-.8 1.3h1.6zM35.5 44.2c-.9 0-1.4-.4-1.4-1.3h.7c0 .2 0 .8.7.8.4 0 .7-.2.7-.6 0-.7-2-.7-2-1.9 0-.4.3-1.1 1.4-1.1.7 0 1.3.3 1.3 1.1h-.7c0-.4-.2-.6-.6-.6-.4 0-.6.2-.6.5 0 .7 2 .7 2 1.9-.1.8-.7 1.2-1.5 1.2z"/><path d="M4.8 56.6v-7.9h3.9v.9H5.8v2.6h2.8v.8H5.8v3.6h-1zM9 48.7h1v1H9v-1zm1 7.9h-.9V51h.9v5.6zM12.7 56.7c-1.2 0-1.9-.5-1.9-1.8h1c0 .3 0 1.1.9 1.1.5 0 1-.3 1-.8 0-1-2.8-1-2.8-2.7 0-.6.4-1.5 1.9-1.5 1 0 1.8.5 1.8 1.6h-1c0-.6-.3-.9-.9-.9-.5 0-.9.3-.9.7 0 1 2.8 1 2.8 2.7 0 1.1-.8 1.6-1.9 1.6zM18.4 56.6v-3.8c0-.7-.2-1.2-1-1.2-.9 0-1.1.7-1.1 1.7v3.3h-.9v-7.9h.9v3.1c.4-.6.8-.8 1.5-.8.9 0 1.5.5 1.5 1.7v3.9h-.9z"/><path class="st0" d="M6.2 61.7c.8.1 1 .7 1 1.4 0 1-.5 1.6-1.5 1.6s-1.5-.6-1.5-1.6c0-.7.2-1.4 1-1.4-.7-.1-1-.7-1-1.3 0-.9.6-1.4 1.4-1.4s1.4.5 1.4 1.4c.2.6-.1 1.1-.8 1.3zm.3 1.4c0-.5-.1-1.1-.7-1.1-.7 0-.8.6-.8 1.1 0 .5.2 1 .7 1s.8-.5.8-1zm0-2.8c0-.4-.2-.8-.7-.8s-.7.4-.7.8.1 1 .7 1 .7-.6.7-1zM10.4 61.9c0 1.4 0 2.9-1.5 2.9s-1.5-1.4-1.5-2.9 0-2.9 1.5-2.9 1.5 1.4 1.5 2.9zm-2.2.1c0 .9-.1 2.1.8 2.1s.8-1.2.8-2.1c0-1.5 0-2.4-.8-2.4s-.8.9-.8 2.4zM12.6 64.6h-.7v-4.7l-.9.5v-.7c.2-.1.7-.5.9-.7h.6v5.6zM16.6 64.7c-.9 0-1.4-.4-1.4-1.3h.7c0 .2 0 .8.7.8.4 0 .7-.2.7-.6 0-.7-2-.7-2-1.9 0-.4.3-1.1 1.4-1.1.7 0 1.3.3 1.3 1.1h-.7c0-.4-.2-.6-.6-.6-.4 0-.6.2-.6.5 0 .7 2 .7 2 1.9-.1.8-.7 1.2-1.5 1.2zM19.3 61c.2-.4.5-.6.9-.6.6 0 1.3.3 1.3 2 0 1 0 2.2-1.3 2.2-.4 0-.7-.2-.9-.5V66h-.7v-5.6h.7v.6zm1.5 1.5c0-.6 0-1.5-.8-1.5s-.7 1.1-.7 1.7c0 .5 0 1.4.8 1.4.6.1.7-.5.7-1.6zM22.8 62.8c0 1.1.3 1.4.8 1.4.4 0 .7-.4.7-.8h.7c0 .9-.6 1.3-1.4 1.3-.9 0-1.5-.3-1.5-2 0-1.2.1-2.2 1.5-2.2 1.2 0 1.4.6 1.4 2v.3h-2.2zm1.6-.5c0-1.2-.3-1.3-.8-1.3-.4 0-.8.2-.8 1.3h1.6zM27.9 61.9c0-.7-.3-.8-.6-.8-.5 0-.8.2-.8 1.3 0 1.3.2 1.8.8 1.8.2 0 .6-.2.6-.9h.7c0 1.1-.8 1.4-1.3 1.4-.9 0-1.5-.3-1.5-2 0-1.2.1-2.2 1.5-2.2.8 0 1.3.5 1.2 1.4h-.6zM29.3 58.8h.7v.7h-.7v-.7zm.7 5.8h-.7v-4h.7v4zM31.4 62.8c0 1.1.3 1.4.8 1.4.4 0 .7-.4.7-.8h.7c0 .9-.6 1.3-1.4 1.3-.9 0-1.5-.3-1.5-2 0-1.2.1-2.2 1.5-2.2 1.2 0 1.4.6 1.4 2v.3h-2.2zm1.5-.5c0-1.2-.3-1.3-.8-1.3-.4 0-.8.2-.8 1.3h1.6zM35.5 64.7c-.9 0-1.4-.4-1.4-1.3h.7c0 .2 0 .8.7.8.4 0 .7-.2.7-.6 0-.7-2-.7-2-1.9 0-.4.3-1.1 1.4-1.1.7 0 1.3.3 1.3 1.1h-.7c0-.4-.2-.6-.6-.6-.4 0-.6.2-.6.5 0 .7 2 .7 2 1.9-.1.8-.7 1.2-1.5 1.2z"/><path d="M5.9 73.5v3.7h-1v-7.9h2.7c1.4 0 1.9 1 1.9 2 0 .9-.5 1.7-1.5 1.8.9.1 1.2.5 1.3 2 0 .3.1 1.6.3 2.1h-1c-.3-.6-.2-1.6-.3-2.6-.1-1-.9-1-1.2-1H5.9zm0-.9h1.5c.7 0 1.1-.6 1.1-1.3 0-.6-.3-1.2-1.1-1.2H5.9v2.5zM11.2 74.6c0 1.6.4 1.9 1.1 1.9.6 0 .9-.5 1-1.1h1c0 1.2-.8 1.8-1.9 1.8-1.2 0-2.1-.4-2.1-2.8 0-1.6.2-3 2.1-3 1.6 0 2 .9 2 2.7v.5h-3.2zm2.2-.7c0-1.6-.5-1.8-1.1-1.8-.6 0-1 .3-1.1 1.8h2.2zM16.3 72.2c.3-.5.7-.8 1.3-.8.9 0 1.8.4 1.8 2.8 0 1.4 0 3-1.8 3-.5 0-.9-.2-1.2-.7v2.7h-.9v-7.7h.9v.7zm2.1 2c0-.8 0-2.1-1.1-2.1s-1 1.5-1 2.4c0 .7 0 1.9 1 1.9 1 .1 1.1-.7 1.1-2.2zM20.4 71.6v-1.1l.9-.4v1.5h1.2v.7h-1.2v3.4c0 .4 0 .8.8.8h.4v.7c-.3 0-.6.1-.9.1-.9 0-1.2-.4-1.2-1v-3.9h-.9v-.7h.9zM22.7 69.2h1v1h-1v-1zm.9 7.9h-.9v-5.6h.9v5.6zM25.5 77.1h-.9v-7.9h.9v7.9zM27.4 74.6c0 1.6.4 1.9 1.1 1.9.6 0 .9-.5 1-1.1h1c0 1.2-.8 1.8-1.9 1.8-1.2 0-2.1-.4-2.1-2.8 0-1.6.2-3 2.1-3 1.6 0 2 .9 2 2.7v.5h-3.2zm2.2-.7c0-1.6-.5-1.8-1.1-1.8-.6 0-1 .3-1.1 1.8h2.2zM33.1 77.2c-1.2 0-1.9-.5-1.9-1.8h1c0 .3 0 1.1.9 1.1.5 0 1-.3 1-.8 0-1-2.8-1-2.8-2.7 0-.6.4-1.5 1.9-1.5 1 0 1.8.5 1.8 1.6h-1c0-.6-.3-.9-.9-.9-.5 0-.9.3-.9.7 0 1 2.8 1 2.8 2.7.1 1.1-.8 1.6-1.9 1.6z"/><path class="st0" d="M4.3 85.1v-.6c1.6-2.3 2.1-2.7 2.1-3.6 0-.4-.2-.7-.7-.7-.6 0-.7.5-.6.9h-.7c-.1-.9.4-1.5 1.3-1.5 1 0 1.5.5 1.5 1.5 0 1.2-.6 1.7-2.1 3.5h2.2v.6h-3zM9.4 82.2c.8.1 1 .7 1 1.4 0 1-.5 1.6-1.5 1.6s-1.5-.6-1.5-1.6c0-.7.2-1.4 1-1.4-.7-.1-1-.7-1-1.3 0-.9.6-1.4 1.4-1.4s1.4.5 1.4 1.4c.1.6-.2 1.1-.8 1.3zm.3 1.4c0-.5-.1-1.1-.7-1.1s-.7.6-.7 1.1c0 .5.2 1 .7 1s.7-.5.7-1zm-.1-2.8c0-.4-.2-.8-.7-.8s-.7.4-.7.8.1 1 .7 1 .7-.6.7-1zM10.5 79.6h2.9v.6l-1.5 4.9h-.8l1.6-4.9h-2.1v-.6zM16.6 85.2c-.9 0-1.4-.4-1.4-1.3h.7c0 .2 0 .8.7.8.4 0 .7-.2.7-.6 0-.7-2-.7-2-1.9 0-.4.3-1.1 1.4-1.1.7 0 1.3.3 1.3 1.1h-.7c0-.4-.2-.6-.6-.6-.4 0-.6.2-.6.5 0 .7 2 .7 2 1.9-.1.8-.7 1.2-1.5 1.2zM19.3 81.5c.2-.4.5-.6.9-.6.6 0 1.3.3 1.3 2 0 1 0 2.2-1.3 2.2-.4 0-.7-.2-.9-.5v1.9h-.7v-5.6h.7v.6zm1.5 1.5c0-.6 0-1.5-.8-1.5s-.7 1.1-.7 1.7c0 .5 0 1.4.8 1.4.6.1.7-.5.7-1.6zM22.8 83.3c0 1.1.3 1.4.8 1.4.4 0 .7-.4.7-.8h.7c0 .9-.6 1.3-1.4 1.3-.9 0-1.5-.3-1.5-2 0-1.2.1-2.2 1.5-2.2 1.2 0 1.4.6 1.4 2v.3h-2.2zm1.6-.5c0-1.2-.3-1.3-.8-1.3-.4 0-.8.2-.8 1.3h1.6zM27.9 82.4c0-.7-.3-.8-.6-.8-.5 0-.8.2-.8 1.3 0 1.3.2 1.8.8 1.8.2 0 .6-.2.6-.9h.7c0 1.1-.8 1.4-1.3 1.4-.9 0-1.5-.3-1.5-2 0-1.2.1-2.2 1.5-2.2.8 0 1.3.5 1.2 1.4h-.6zM29.3 79.3h.7v.7h-.7v-.7zm.7 5.8h-.7v-4h.7v4zM31.4 83.3c0 1.1.3 1.4.8 1.4.4 0 .7-.4.7-.8h.7c0 .9-.6 1.3-1.4 1.3-.9 0-1.5-.3-1.5-2 0-1.2.1-2.2 1.5-2.2 1.2 0 1.4.6 1.4 2v.3h-2.2zm1.5-.5c0-1.2-.3-1.3-.8-1.3-.4 0-.8.2-.8 1.3h1.6zM35.5 85.2c-.9 0-1.4-.4-1.4-1.3h.7c0 .2 0 .8.7.8.4 0 .7-.2.7-.6 0-.7-2-.7-2-1.9 0-.4.3-1.1 1.4-1.1.7 0 1.3.3 1.3 1.1h-.7c0-.4-.2-.6-.6-.6-.4 0-.6.2-.6.5 0 .7 2 .7 2 1.9-.1.8-.7 1.2-1.5 1.2z"/><path d="M5.8 97.6h-.9v-7.9h1.6l2 6.7 2-6.7h1.7v7.9h-1v-7.1L9 97.6H8l-2.2-7.1v7.1zM16.3 96.8c-.3.6-.7.9-1.4.9-1.2 0-1.5-.8-1.5-1.8 0-1.7 1.6-1.8 2.9-1.7 0-.7 0-1.5-.9-1.5-.6 0-.9.4-.9 1h-1c0-1.2.7-1.7 1.9-1.7 1.4 0 1.8.7 1.8 1.7v2.7c0 .4 0 .9.1 1.3h-1v-.9zm-2.1-.8c0 .5.3 1 .9 1 .6 0 1.2-.3 1.1-2.1-.8 0-2-.1-2 1.1zM21.1 97.6v-3.9c0-.6-.2-1.1-.9-1.1-.3 0-.6.2-.8.4-.2.3-.2.6-.2.8v3.7h-.9v-4.4c0-.4 0-.8-.1-1.2h1v.7c.3-.6.7-.8 1.4-.8.5 0 1.1.2 1.3.7.3-.6.8-.7 1.3-.7.6 0 1.5.1 1.5 1.4v4.2h-.9v-3.9c0-.6-.2-1.1-.9-1.1-.3 0-.4 0-.7.2-.3.2-.3.8-.3 1v3.7h-.8zM28.5 97.6v-3.9c0-.6-.2-1.1-.9-1.1-.3 0-.6.2-.8.4-.2.3-.2.6-.2.8v3.7h-.9v-4.4c0-.4 0-.8-.1-1.2h1v.7c.3-.6.7-.8 1.4-.8.5 0 1.1.2 1.3.7.3-.6.8-.7 1.3-.7.6 0 1.5.1 1.5 1.4v4.2h-.9v-3.9c0-.6-.2-1.1-.9-1.1-.3 0-.4 0-.7.2-.3.2-.3.8-.3 1v3.7h-.8zM36 96.8c-.3.6-.7.9-1.4.9-1.2 0-1.5-.8-1.5-1.8 0-1.7 1.6-1.8 2.9-1.7 0-.7 0-1.5-.9-1.5-.6 0-.9.4-.9 1h-1c0-1.2.7-1.7 1.9-1.7 1.4 0 1.8.7 1.8 1.7v2.7c0 .4 0 .9.1 1.3h-1v-.9zm-2-.8c0 .5.3 1 .9 1 .6 0 1.2-.3 1.1-2.1-.9 0-2-.1-2 1.1zM39 97.6h-.9v-7.9h.9v7.9zM41.6 97.7c-1.2 0-1.9-.5-1.9-1.8h1c0 .3 0 1.1.9 1.1.5 0 1-.3 1-.8 0-1-2.8-1-2.8-2.7 0-.6.4-1.5 1.9-1.5 1 0 1.8.5 1.8 1.6h-1c0-.6-.3-.9-.9-.9-.5 0-.9.3-.9.7 0 1 2.8 1 2.8 2.7.1 1.1-.8 1.6-1.9 1.6z"/><path class="st0" d="M4.2 104.3v-.6l1.6-3.6h1v3.6h.7v.6h-.8v1.4H6v-1.4H4.2zm1.8-.7v-2.9l-1.2 2.9H6z"/><path class="st0" d="M8.5 102.4c.7.1 1.1-.2 1.1-.9 0-.5-.2-.9-.8-.9-.6 0-.7.5-.7.9h-.7c-.1-.9.4-1.5 1.4-1.5.9 0 1.5.5 1.5 1.4 0 1-.8 1.2-1.1 1.3.9.1 1.2.6 1.2 1.4 0 1.1-.6 1.6-1.6 1.6-1.6 0-1.4-1.3-1.4-1.6h.7c0 .6.1 1 .8 1 .6 0 .8-.4.8-1 0-.9-.3-1.1-1.2-1.1v-.6zM10.6 105.6v-.6c1.6-2.3 2.1-2.7 2.1-3.6 0-.4-.2-.7-.7-.7-.6 0-.7.5-.6.9h-.8c-.1-.9.4-1.5 1.3-1.5 1 0 1.5.5 1.5 1.5 0 1.2-.6 1.7-2.1 3.5h2.2v.6h-2.9zM16.6 105.7c-.9 0-1.4-.4-1.4-1.3h.7c0 .2 0 .8.7.8.4 0 .7-.2.7-.6 0-.7-2-.7-2-1.9 0-.4.3-1.1 1.4-1.1.7 0 1.3.3 1.3 1.1h-.7c0-.4-.2-.6-.6-.6-.4 0-.6.2-.6.5 0 .7 2 .7 2 1.9-.1.8-.7 1.2-1.5 1.2zM19.3 102c.2-.4.5-.6.9-.6.6 0 1.3.3 1.3 2 0 1 0 2.2-1.3 2.2-.4 0-.7-.2-.9-.5v1.9h-.7v-5.6h.7v.6zm1.5 1.5c0-.6 0-1.5-.8-1.5s-.7 1.1-.7 1.7c0 .5 0 1.4.8 1.4.6.1.7-.5.7-1.6zM22.8 103.8c0 1.1.3 1.4.8 1.4.4 0 .7-.4.7-.8h.7c0 .9-.6 1.3-1.4 1.3-.9 0-1.5-.3-1.5-2 0-1.2.1-2.2 1.5-2.2 1.2 0 1.4.6 1.4 2v.3h-2.2zm1.6-.5c0-1.2-.3-1.3-.8-1.3-.4 0-.8.2-.8 1.3h1.6zM27.9 102.9c0-.7-.3-.8-.6-.8-.5 0-.8.2-.8 1.3 0 1.3.2 1.8.8 1.8.2 0 .6-.2.6-.9h.7c0 1.1-.8 1.4-1.3 1.4-.9 0-1.5-.3-1.5-2 0-1.2.1-2.2 1.5-2.2.8 0 1.3.5 1.2 1.4h-.6zM29.3 99.8h.7v.7h-.7v-.7zm.7 5.8h-.7v-4h.7v4zM31.4 103.8c0 1.1.3 1.4.8 1.4.4 0 .7-.4.7-.8h.7c0 .9-.6 1.3-1.4 1.3-.9 0-1.5-.3-1.5-2 0-1.2.1-2.2 1.5-2.2 1.2 0 1.4.6 1.4 2v.3h-2.2zm1.5-.5c0-1.2-.3-1.3-.8-1.3-.4 0-.8.2-.8 1.3h1.6zM35.5 105.7c-.9 0-1.4-.4-1.4-1.3h.7c0 .2 0 .8.7.8.4 0 .7-.2.7-.6 0-.7-2-.7-2-1.9 0-.4.3-1.1 1.4-1.1.7 0 1.3.3 1.3 1.1h-.7c0-.4-.2-.6-.6-.6-.4 0-.6.2-.6.5 0 .7 2 .7 2 1.9-.1.8-.7 1.2-1.5 1.2z"/><path d="M6.7 110.2H8l2.6 7.9H9.4l-.6-1.9h-3l-.6 1.9h-1l2.5-7.9zm.6.9L6 115.3h2.5l-1.2-4.2zM13.7 118.1v-3.9c0-.6-.2-1.1-.9-1.1-.3 0-.6.2-.8.4-.2.3-.2.6-.2.8v3.7h-.9v-4.4c0-.4 0-.8-.1-1.2h1v.7c.3-.6.7-.8 1.4-.8.5 0 1.1.2 1.3.7.3-.6.8-.7 1.3-.7.6 0 1.5.1 1.5 1.4v4.2h-.9V114c0-.6-.2-1.1-.9-1.1-.3 0-.4 0-.7.2-.3.2-.3.8-.3 1v3.7h-.8zM19.3 113.2c.3-.5.7-.8 1.3-.8.9 0 1.8.4 1.8 2.8 0 1.4 0 3-1.8 3-.5 0-.9-.2-1.2-.7v2.7h-.9v-7.7h.9v.7zm2.2 2c0-.8 0-2.1-1.1-2.1s-1 1.5-1 2.4c0 .7 0 1.9 1 1.9.9.1 1.1-.7 1.1-2.2zM26.3 118.1v-3.8c0-.7-.2-1.2-1-1.2-.9 0-1.1.7-1.1 1.7v3.3h-.9v-7.9h.9v3.1c.4-.6.8-.8 1.5-.8.9 0 1.5.5 1.5 1.7v3.9h-.9zM28.2 110.2h1v1h-1v-1zm.9 7.9h-.9v-5.6h.9v5.6zM31.1 118.1h-.9v-7.9h.9v2.9c.3-.4.7-.7 1.2-.7 1.8 0 1.8 1.6 1.8 3 0 2.4-.9 2.8-1.8 2.8-.6 0-1-.3-1.3-.8v.7zm1-.6c1.1 0 1.1-1.2 1.1-2 0-1.5-.1-2.3-1.1-2.3s-1 1.2-1 1.9c0 .9-.1 2.4 1 2.4zM35 110.2h1v1h-1v-1zm1 7.9h-.9v-5.6h.9v5.6zM39.8 117.3c-.3.6-.7.9-1.4.9-1.2 0-1.5-.8-1.5-1.8 0-1.7 1.6-1.8 2.9-1.7 0-.7 0-1.5-.9-1.5-.6 0-.9.4-.9 1h-1c0-1.2.7-1.7 1.9-1.7 1.4 0 1.8.7 1.8 1.7v2.7c0 .4 0 .9.1 1.3h-1v-.9zm-2-.8c0 .5.3 1 .9 1 .6 0 1.2-.3 1.1-2.1-.8 0-2-.1-2 1.1zM44.9 118.1v-3.9c0-.6-.2-1.1-1-1.1-1 0-1.1.9-1.1 1.6v3.3h-.9v-4.4c0-.4 0-.8-.1-1.2h1v.7c.4-.6.8-.8 1.5-.8 1.2 0 1.5.7 1.5 1.8v3.9h-.9zM48.5 118.2c-1.2 0-1.9-.5-1.9-1.8h1c0 .3 0 1.1.9 1.1.5 0 1-.3 1-.8 0-1-2.8-1-2.8-2.7 0-.6.4-1.5 1.9-1.5 1 0 1.8.5 1.8 1.6h-1c0-.6-.3-.9-.9-.9-.5 0-.9.3-.9.7 0 1 2.8 1 2.8 2.7.1 1.1-.8 1.6-1.9 1.6z"/><path class="st0" d="M5.3 122.9c.7.1 1.1-.2 1.1-.9 0-.5-.2-.9-.8-.9-.6 0-.7.5-.7.9h-.6c-.1-.9.4-1.5 1.4-1.5.9 0 1.5.5 1.5 1.4 0 1-.8 1.2-1.1 1.3.9.1 1.2.6 1.2 1.4 0 1.1-.6 1.6-1.6 1.6-1.6 0-1.4-1.3-1.4-1.6H5c0 .6.1 1 .8 1 .6 0 .8-.4.8-1 0-.9-.3-1.1-1.2-1.1v-.6z"/><path class="st0" d="M7.3 124.8v-.6l1.6-3.6h1v3.6h.7v.6h-.7v1.4h-.7v-1.4H7.3zm1.9-.7v-2.9L8 124.1h1.2zM10.6 123.4c0-1.5 0-2.9 1.5-2.9.8 0 1.4.5 1.4 1.4h-.7c0-.4-.2-.8-.6-.8-.6 0-.8.5-.8 2 .2-.3.5-.5.9-.5.7 0 1.3.4 1.3 1.9 0 1-.4 1.9-1.5 1.9-1.5-.2-1.5-1.6-1.5-3zm1.5 2.2c.6 0 .7-.7.7-1.4 0-.5-.1-1.1-.8-1.1-.6 0-.7.7-.7 1.2 0 .6.1 1.3.8 1.3zM16.6 126.2c-.9 0-1.4-.4-1.4-1.3h.7c0 .2 0 .8.7.8.4 0 .7-.2.7-.6 0-.7-2-.7-2-1.9 0-.4.3-1.1 1.4-1.1.7 0 1.3.3 1.3 1.1h-.7c0-.4-.2-.6-.6-.6-.4 0-.6.2-.6.5 0 .7 2 .7 2 1.9-.1.8-.7 1.2-1.5 1.2zM19.3 122.5c.2-.4.5-.6.9-.6.6 0 1.3.3 1.3 2 0 1 0 2.2-1.3 2.2-.4 0-.7-.2-.9-.5v1.9h-.7v-5.6h.7v.6zm1.5 1.5c0-.6 0-1.5-.8-1.5s-.7 1.1-.7 1.7c0 .5 0 1.4.8 1.4.6.1.7-.5.7-1.6zM22.8 124.3c0 1.1.3 1.4.8 1.4.4 0 .7-.4.7-.8h.7c0 .9-.6 1.3-1.4 1.3-.9 0-1.5-.3-1.5-2 0-1.2.1-2.2 1.5-2.2 1.2 0 1.4.6 1.4 2v.3h-2.2zm1.6-.5c0-1.2-.3-1.3-.8-1.3-.4 0-.8.2-.8 1.3h1.6zM27.9 123.4c0-.7-.3-.8-.6-.8-.5 0-.8.2-.8 1.3 0 1.3.2 1.8.8 1.8.2 0 .6-.2.6-.9h.7c0 1.1-.8 1.4-1.3 1.4-.9 0-1.5-.3-1.5-2 0-1.2.1-2.2 1.5-2.2.8 0 1.3.5 1.2 1.4h-.6zM29.3 120.3h.7v.7h-.7v-.7zm.7 5.8h-.7v-4h.7v4zM31.4 124.3c0 1.1.3 1.4.8 1.4.4 0 .7-.4.7-.8h.7c0 .9-.6 1.3-1.4 1.3-.9 0-1.5-.3-1.5-2 0-1.2.1-2.2 1.5-2.2 1.2 0 1.4.6 1.4 2v.3h-2.2zm1.5-.5c0-1.2-.3-1.3-.8-1.3-.4 0-.8.2-.8 1.3h1.6zM35.5 126.2c-.9 0-1.4-.4-1.4-1.3h.7c0 .2 0 .8.7.8.4 0 .7-.2.7-.6 0-.7-2-.7-2-1.9 0-.4.3-1.1 1.4-1.1.7 0 1.3.3 1.3 1.1h-.7c0-.4-.2-.6-.6-.6-.4 0-.6.2-.6.5 0 .7 2 .7 2 1.9-.1.8-.7 1.2-1.5 1.2z"/><path d="M5 138.6v-7.9h2.4c1.1 0 2.2.4 2.2 2.3 0 1.8-1.4 2.2-2.2 2.2H6v3.5H5zm1-4.4h1.1c.4 0 1.4-.1 1.4-1.4 0-1.2-.9-1.3-1.1-1.3H6v2.7zM11.2 138.6h-.9v-7.9h.9v7.9zM15.1 137.8c-.3.6-.7.9-1.4.9-1.2 0-1.5-.8-1.5-1.8 0-1.7 1.6-1.8 2.9-1.7 0-.7 0-1.5-.9-1.5-.6 0-.9.4-.9 1h-1c0-1.2.7-1.7 1.9-1.7 1.4 0 1.8.7 1.8 1.7v2.7c0 .4 0 .9.1 1.3h-1v-.9zm-2-.8c0 .5.3 1 .9 1 .6 0 1.2-.3 1.1-2.1-.9 0-2-.1-2 1.1zM20.2 138.6v-3.9c0-.6-.2-1.1-1-1.1-1 0-1.1.9-1.1 1.6v3.3h-.9v-4.4c0-.4 0-.8-.1-1.2h1v.7c.4-.6.8-.8 1.5-.8 1.2 0 1.5.7 1.5 1.8v3.9h-.9zM22.2 133.1V132l.9-.4v1.5h1.2v.7h-1.2v3.4c0 .4 0 .8.8.8h.4v.7c-.3 0-.6.1-.9.1-.9 0-1.2-.4-1.2-1v-4h-.9v-.7h.9zM26.3 138.7c-1.2 0-1.9-.5-1.9-1.8h1c0 .3 0 1.1.9 1.1.5 0 1-.3 1-.8 0-1-2.8-1-2.8-2.7 0-.6.4-1.5 1.9-1.5 1 0 1.8.5 1.8 1.6h-1c0-.6-.3-.9-.9-.9-.5 0-.9.3-.9.7 0 1 2.8 1 2.8 2.7 0 1.1-.8 1.6-1.9 1.6z"/><path class="st0" d="M4.3 146.6v-.6c1.6-2.3 2.1-2.7 2.1-3.6 0-.4-.2-.7-.7-.7-.6 0-.7.5-.6.9h-.7c-.1-.9.4-1.5 1.3-1.5 1 0 1.5.5 1.5 1.5 0 1.2-.6 1.7-2.1 3.5h2.2v.6h-3zM7.4 141.1h2.9v.6l-1.5 4.9h-.9l1.6-4.9H7.4v-.6zM11 145.8h.8l-.7 1.8h-.5l.4-1.8zM13 143.4c.7.1 1.1-.2 1.1-.9 0-.5-.2-.9-.8-.9-.6 0-.7.5-.7.9H12c-.1-.9.4-1.5 1.4-1.5.9 0 1.5.5 1.5 1.4 0 1-.8 1.2-1.1 1.3.9.1 1.2.6 1.2 1.4 0 1.1-.6 1.6-1.6 1.6-1.6 0-1.4-1.3-1.4-1.6h.7c0 .6.1 1 .8 1 .6 0 .8-.4.8-1 0-.9-.3-1.1-1.2-1.1v-.6zM17.1 143.7c.8.1 1 .7 1 1.4 0 1-.5 1.6-1.5 1.6s-1.5-.6-1.5-1.6c0-.7.2-1.4 1-1.4-.7-.1-1-.7-1-1.3 0-.9.6-1.4 1.4-1.4s1.4.5 1.4 1.4c.1.6-.2 1.1-.8 1.3zm.2 1.4c0-.5-.1-1.1-.7-1.1-.7 0-.7.6-.7 1.1 0 .5.2 1 .7 1s.7-.5.7-1zm0-2.8c0-.4-.2-.8-.7-.8s-.7.4-.7.8.1 1 .7 1 .7-.6.7-1zM21.2 143.9c0 1.4 0 2.9-1.5 2.9s-1.5-1.4-1.5-2.9 0-2.9 1.5-2.9c1.6 0 1.5 1.4 1.5 2.9zm-2.2.1c0 .9-.1 2.1.8 2.1s.8-1.2.8-2.1c0-1.5 0-2.4-.8-2.4s-.8.9-.8 2.4zM24.3 146.7c-.9 0-1.4-.4-1.4-1.3h.7c0 .2 0 .8.7.8.4 0 .7-.2.7-.6 0-.7-2-.7-2-1.9 0-.4.3-1.1 1.4-1.1.7 0 1.3.3 1.3 1.1H25c0-.4-.2-.6-.6-.6-.4 0-.6.2-.6.5 0 .7 2 .7 2 1.9-.1.8-.7 1.2-1.5 1.2zM26.9 143c.2-.4.5-.6.9-.6.6 0 1.3.3 1.3 2 0 1 0 2.2-1.3 2.2-.4 0-.7-.2-.9-.5v1.9h-.7v-5.6h.7v.6zm1.6 1.5c0-.6 0-1.5-.8-1.5s-.7 1.1-.7 1.7c0 .5 0 1.4.8 1.4.6.1.7-.5.7-1.6zM30.5 144.8c0 1.1.3 1.4.8 1.4.4 0 .7-.4.7-.8h.7c0 .9-.6 1.3-1.4 1.3-.9 0-1.5-.3-1.5-2 0-1.2.1-2.2 1.5-2.2 1.2 0 1.4.6 1.4 2v.3h-2.2zm1.5-.5c0-1.2-.3-1.3-.8-1.3-.4 0-.8.2-.8 1.3H32zM35.5 143.9c0-.7-.3-.8-.6-.8-.5 0-.8.2-.8 1.3 0 1.3.2 1.8.8 1.8.2 0 .6-.2.6-.9h.7c0 1.1-.8 1.4-1.3 1.4-.9 0-1.5-.3-1.5-2 0-1.2.1-2.2 1.5-2.2.8 0 1.3.5 1.2 1.4h-.6zM37 140.8h.7v.7H37v-.7zm.7 5.8H37v-4h.7v4zM39 144.8c0 1.1.3 1.4.8 1.4.4 0 .7-.4.7-.8h.7c0 .9-.6 1.3-1.4 1.3-.9 0-1.5-.3-1.5-2 0-1.2.1-2.2 1.5-2.2 1.2 0 1.4.6 1.4 2v.3H39zm1.6-.5c0-1.2-.3-1.3-.8-1.3-.4 0-.8.2-.8 1.3h1.6zM43.2 146.7c-.9 0-1.4-.4-1.4-1.3h.7c0 .2 0 .8.7.8.4 0 .7-.2.7-.6 0-.7-2-.7-2-1.9 0-.4.3-1.1 1.4-1.1.7 0 1.3.3 1.3 1.1h-.7c0-.4-.2-.6-.6-.6-.4 0-.6.2-.6.5 0 .7 2 .7 2 1.9-.1.8-.7 1.2-1.5 1.2z"/><path class="st1" d="M52.7 162.7H59v6.3h-6.3z"/><path class="st2" d="M112.7 162.7h6.3v6.3h-6.3z"/><g><path d="M62.7 166.6v.2c0 .8.5 1 1 1 .6 0 1-.2 1-.9 0-1.3-2.6-1.1-2.6-2.9 0-1 .7-1.6 1.7-1.6 1.1 0 1.6.5 1.6 1.7h-.8c0-.6-.2-1-.9-1-.4 0-.9.2-.9.8 0 1.3 2.6 1.1 2.6 2.9 0 1.2-.8 1.6-1.8 1.6-1.7 0-1.7-1.3-1.7-1.8h.8zM66.3 166.4c0-1.2.1-2.2 1.5-2.2s1.5 1 1.5 2.2c0 1.8-.7 2-1.5 2s-1.5-.2-1.5-2zm2.4-.3c0-1.1-.3-1.3-.8-1.3s-.9.2-.9 1.3c0 1.3.2 1.8.8 1.8s.9-.5.9-1.8zM72.5 164.3h.7v4h-.7v-.5c-.2.4-.6.6-1 .6-.7 0-1.1-.4-1.1-1v-3.1h.6v2.8c0 .5.2.8.7.8.4 0 .8-.3.8-.9v-2.7zM74.4 164.3v-.8l.7-.3v1.1h.9v.5h-1v2.5c0 .3 0 .6.6.6h.3v.5c-.2 0-.4.1-.6.1-.6 0-.9-.3-.9-.7v-2.9h-.7v-.5h.7zM78.6 168.3v-2.7c0-.5-.2-.8-.7-.8-.7 0-.8.5-.8 1.2v2.4h-.7v-5.8h.7v2.3c.3-.5.6-.6 1.1-.6.7 0 1.1.3 1.1 1.3v2.9h-.7zM81 166.5c0 1.1.3 1.4.8 1.4.4 0 .7-.4.7-.8h.7c0 .9-.6 1.3-1.4 1.3-.9 0-1.5-.3-1.5-2 0-1.2.1-2.2 1.5-2.2 1.2 0 1.4.6 1.4 2v.3H81zm1.6-.5c0-1.2-.3-1.3-.8-1.3-.4 0-.8.2-.8 1.3h1.6zM86.3 167.7c-.2.5-.5.7-1 .7-.9 0-1.1-.6-1.1-1.3 0-1.2 1.2-1.3 2.1-1.3 0-.5 0-1.1-.7-1.1-.4 0-.7.3-.6.7h-.7c0-.9.5-1.2 1.4-1.2 1 0 1.3.5 1.3 1.2v1.9c0 .3 0 .6.1 1h-.7v-.6zm-1.4-.6c0 .4.2.7.6.7.4 0 .9-.2.8-1.6-.6.1-1.4.1-1.4.9zM89.4 168.4c-.9 0-1.4-.4-1.4-1.3h.7c0 .2 0 .8.7.8.4 0 .7-.2.7-.6 0-.7-2-.7-2-1.9 0-.4.3-1.1 1.4-1.1.7 0 1.3.3 1.3 1.1H90c0-.4-.2-.6-.6-.6-.4 0-.6.2-.6.5 0 .7 2 .7 2 1.9 0 .9-.6 1.2-1.4 1.2zM91.7 164.3v-.8l.7-.3v1.1h.9v.5h-.9v2.5c0 .3 0 .6.6.6h.3v.5c-.2 0-.4.1-.6.1-.6 0-.9-.3-.9-.7v-2.9h-.7v-.5h.6zM95.5 162.6h.7v3.7c0 1.3.4 1.6 1.1 1.6s1.1-.3 1.1-1.6v-3.7h.7v3.7c0 1.6-.6 2.2-1.8 2.2s-1.8-.6-1.8-2.2v-3.7zM101 168.3h-.8v-.8h.8v.8zM102.6 166.6v.2c0 .8.5 1 1 1 .6 0 1-.2 1-.9 0-1.3-2.6-1.1-2.6-2.9 0-1 .7-1.6 1.7-1.6 1.1 0 1.6.5 1.6 1.7h-.8c0-.6-.2-1-.9-1-.4 0-.9.2-.9.8 0 1.3 2.6 1.1 2.6 2.9 0 1.2-.8 1.6-1.8 1.6-1.7 0-1.7-1.3-1.7-1.8h.8zM107.1 168.3h-.8v-.8h.8v.8z"/></g><g><path d="M122.4 165.7v2.7h-.7v-5.8h2c1 0 1.4.7 1.4 1.4s-.4 1.2-1.1 1.3c.7.1.9.3.9 1.5 0 .2.1 1.2.2 1.5h-.8c-.2-.4-.2-1.2-.2-1.9-.1-.7-.6-.7-.9-.7h-.8zm0-.7h1.1c.5 0 .8-.5.8-1 0-.4-.2-.9-.8-.9h-1.1v1.9zM126.6 166.5c0 1.1.3 1.4.8 1.4.4 0 .7-.4.7-.8h.7c0 .9-.6 1.3-1.4 1.3-.9 0-1.5-.3-1.5-2 0-1.2.1-2.2 1.5-2.2 1.2 0 1.4.6 1.4 2v.3h-2.2zm1.6-.5c0-1.2-.3-1.3-.8-1.3-.4 0-.8.2-.8 1.3h1.6zM131.1 168.4c-.9 0-1.4-.4-1.4-1.3h.7c0 .2 0 .8.7.8.4 0 .7-.2.7-.6 0-.7-2-.7-2-1.9 0-.4.3-1.1 1.4-1.1.7 0 1.3.3 1.3 1.1h-.7c0-.4-.2-.6-.6-.6-.4 0-.6.2-.6.5 0 .7 2 .7 2 1.9-.1.9-.7 1.2-1.5 1.2zM133.4 164.3v-.8l.7-.3v1.1h.9v.5h-.9v2.5c0 .3 0 .6.6.6h.3v.5c-.2 0-.4.1-.6.1-.6 0-.9-.3-.9-.7v-2.9h-.7v-.5h.6zM137.1 166.4c0-1.2.1-2.2 1.5-2.2s1.5 1 1.5 2.2c0 1.8-.7 2-1.5 2s-1.5-.2-1.5-2zm2.3-.3c0-1.1-.3-1.3-.8-1.3s-.8.2-.8 1.3c0 1.3.2 1.8.8 1.8s.8-.5.8-1.8zM141.2 164.3v-.8c0-.8.6-1 1.2-1h.3v.5c-.7 0-.8.2-.8.6v.7h.8v.5h-.8v3.5h-.7v-3.5h-.6v-.5h.6zM145 162.6h.7v3.7c0 1.3.4 1.6 1.1 1.6.7 0 1.1-.3 1.1-1.6v-3.7h.7v3.7c0 1.6-.6 2.2-1.8 2.2-1.2 0-1.8-.6-1.8-2.2v-3.7zM150.4 168.3h-.8v-.8h.8v.8zM152.1 166.6v.2c0 .8.5 1 1 1 .6 0 1-.2 1-.9 0-1.3-2.6-1.1-2.6-2.9 0-1 .7-1.6 1.7-1.6 1.1 0 1.6.5 1.6 1.7h-.8c0-.6-.2-1-.9-1-.4 0-.9.2-.9.8 0 1.3 2.6 1.1 2.6 2.9 0 1.2-.8 1.6-1.8 1.6-1.7 0-1.7-1.3-1.7-1.8h.8zM156.5 168.3h-.8v-.8h.8v.8z"/></g><g><text transform="translate(52.115 156.498)" class="st3 st4">0</text><text transform="translate(85.862 156.498)" class="st3 st4">20</text><text transform="translate(121.663 156.498)" class="st3 st4">40</text><text transform="translate(157.463 156.498)" class="st3 st4">60</text><text transform="translate(193.263 156.498)" class="st3 st4">80</text><text transform="translate(227.01 156.498)" class="st3 st4">100</text><path class="st5" d="M54.2 148h179"/><g><path class="st5" d="M54.2 148v-3.6M90 148v-3.6M125.8 148v-3.6M161.6 148v-3.6M197.4 148v-3.6M233.2 148v-3.6"/></g><g><path class="st5" d="M54.2 148V5M54.2 137.8h4.4M54.2 117.3h4.4M54.2 96.9h4.4M54.2 76.5h4.4M54.2 56h4.4M54.2 35.6h4.4M54.2 15.2h4.4"/></g><g><path class="st6" d="M218.8 7.8h14.3v14.7h-14.3zM209.9 28.3h23.3V43h-23.3zM188.4 48.7h44.8v14.7h-44.8zM177.7 69.1h55.5v14.7h-55.5zM156.2 89.5h77v14.7h-77zM141.9 110h91.3v14.7h-91.3zM109.7 130.4h123.5v14.7H109.7z"/><g><path class="st7" d="M54.2 7.8h164.7v14.7H54.2zM54.2 28.3h155.7V43H54.2zM54.2 48.7h134.2v14.7H54.2zM54.2 69.1h123.5v14.7H54.2zM54.2 89.5h102v14.7h-102zM54.2 110h87.7v14.7H54.2zM54.2 130.4h55.5v14.7H54.2z"/></g></g></g><g><path d="M134.5 11.9v.6h-1.9v1.6c.1-.2.5-.4.9-.4.8 0 1.2.6 1.2 1.9 0 .9-.1 1.9-1.5 1.9-1.2 0-1.4-.6-1.4-1.4h.7c0 .4.2.8.7.8.7 0 .7-.7.7-1.2 0-.8 0-1.4-.7-1.4-.4 0-.6.3-.7.6h-.7v-3.1h2.7zM138.2 14.7c0 1.4 0 2.9-1.5 2.9-.8 0-1.4-.6-1.4-1.4h.7c0 .4.2.8.6.8.7 0 .8-.8.8-2.2-.2.4-.5.5-1 .5-.4 0-1.3-.2-1.3-1.8 0-1.2.7-1.7 1.5-1.7 1.6 0 1.6 1.4 1.6 2.9zm-2.3-1.2c0 .6.1 1.2.7 1.2s.7-.6.7-1.2c0-.5-.1-1.2-.7-1.2s-.7.7-.7 1.2zM140.6 14.5c.8.1 1 .7 1 1.4 0 1-.5 1.6-1.5 1.6s-1.5-.6-1.5-1.6c0-.7.2-1.4 1-1.4-.7-.1-1-.7-1-1.3 0-.9.6-1.4 1.4-1.4.9 0 1.4.5 1.4 1.4.2.6-.2 1.2-.8 1.3zm.3 1.5c0-.5-.1-1.1-.7-1.1s-.7.6-.7 1.1c0 .5.2 1 .7 1s.7-.6.7-1zm-.1-2.8c0-.4-.2-.8-.7-.8s-.7.4-.7.8.1 1 .7 1 .7-.6.7-1z"/></g><g><path d="M225.7 11.9v.6h-1.9v1.6c.1-.2.5-.4.9-.4.8 0 1.2.6 1.2 1.9 0 .9-.1 1.9-1.5 1.9-1.2 0-1.4-.6-1.4-1.4h.7c0 .4.2.8.7.8.7 0 .7-.7.7-1.2 0-.8 0-1.4-.7-1.4-.4 0-.6.3-.7.6h-.7v-3.1h2.7zM226.5 17.4v-.6c1.6-2.3 2.1-2.7 2.1-3.6 0-.4-.2-.7-.7-.7-.6 0-.7.5-.6.9h-.8c-.1-.9.4-1.5 1.3-1.5 1 0 1.5.5 1.5 1.5 0 1.2-.6 1.7-2.1 3.5h2.2v.6h-2.9z"/></g><g><path d="M127 37.9v-.6c1.6-2.3 2.1-2.7 2.1-3.6 0-.4-.2-.7-.7-.7-.6 0-.7.5-.6.9h-.8c-.1-.9.4-1.5 1.3-1.5 1 0 1.5.5 1.5 1.5 0 1.2-.6 1.7-2.1 3.5h2.2v.6H127zM133.2 32.4v.6h-1.9v1.6c.1-.2.5-.4.9-.4.8 0 1.2.6 1.2 1.9 0 .9-.1 1.9-1.5 1.9-1.2 0-1.4-.6-1.4-1.4h.7c0 .4.2.8.7.8.7 0 .7-.7.7-1.2 0-.8 0-1.4-.7-1.4-.4 0-.6.3-.7.6h-.7v-3.1h2.7zM135.8 35c.8.1 1 .7 1 1.4 0 1-.5 1.6-1.5 1.6s-1.5-.6-1.5-1.6c0-.7.2-1.4 1-1.4-.7-.1-1-.7-1-1.3 0-.9.6-1.4 1.4-1.4.9 0 1.4.5 1.4 1.4.2.6-.1 1.2-.8 1.3zm.3 1.5c0-.5-.1-1.1-.7-1.1s-.7.6-.7 1.1c0 .5.2 1 .7 1s.7-.6.7-1zm0-2.8c0-.4-.2-.8-.7-.8s-.7.4-.7.8.1 1 .7 1 .7-.6.7-1z"/></g><g><path d="M219.3 34.7c.7.1 1.1-.2 1.1-.9 0-.5-.2-.9-.8-.9-.6 0-.7.5-.7.9h-.7c-.1-.9.4-1.5 1.4-1.5.9 0 1.5.5 1.5 1.4 0 1-.8 1.2-1.1 1.3.9.1 1.2.6 1.2 1.4 0 1.1-.6 1.6-1.6 1.6-1.6 0-1.4-1.3-1.4-1.6h.7c0 .6.1 1 .8 1 .6 0 .8-.4.8-1 0-.9-.3-1.1-1.2-1.1v-.6zM224.6 35.2c0 1.4 0 2.9-1.5 2.9-.8 0-1.4-.6-1.4-1.4h.7c0 .4.2.8.6.8.7 0 .8-.8.8-2.2-.2.4-.5.5-1 .5-.4 0-1.3-.2-1.3-1.8 0-1.2.7-1.7 1.5-1.7 1.7 0 1.6 1.4 1.6 2.9zm-2.2-1.2c0 .6.1 1.2.7 1.2s.7-.6.7-1.2c0-.5-.1-1.2-.7-1.2s-.7.7-.7 1.2z"/></g><g><path d="M116.5 55.7c0-1.5 0-2.9 1.5-2.9.8 0 1.4.5 1.4 1.4h-.7c0-.4-.2-.8-.6-.8-.6 0-.8.5-.8 2 .2-.3.5-.5.9-.5.7 0 1.3.4 1.3 1.9 0 1-.4 1.9-1.5 1.9-1.5-.1-1.5-1.6-1.5-3zm1.5 2.2c.6 0 .7-.7.7-1.4 0-.5-.1-1.1-.8-1.1-.6 0-.7.7-.7 1.2.1.6.1 1.3.8 1.3zM123 55.7c0 1.4 0 2.9-1.5 2.9s-1.5-1.4-1.5-2.9 0-2.9 1.5-2.9 1.5 1.4 1.5 2.9zm-2.3.1c0 .9-.1 2.1.8 2.1s.8-1.2.8-2.1c0-1.5 0-2.4-.8-2.4s-.8.9-.8 2.4zM125.5 58.4h-.7v-4.7l-.8.6v-.7c.2-.1.7-.5.9-.7h.6v5.5z"/></g><g><path d="M206.1 58.4v-.6c1.6-2.3 2.1-2.7 2.1-3.6 0-.4-.2-.7-.7-.7-.6 0-.7.5-.6.9h-.8c-.1-.9.4-1.5 1.3-1.5 1 0 1.5.5 1.5 1.5 0 1.2-.6 1.7-2.1 3.5h2.2v.6h-2.9zM212.5 55.7c0 1.4 0 2.9-1.5 2.9s-1.5-1.4-1.5-2.9 0-2.9 1.5-2.9 1.5 1.4 1.5 2.9zm-2.3.1c0 .9-.1 2.1.8 2.1s.8-1.2.8-2.1c0-1.5 0-2.4-.8-2.4s-.8.9-.8 2.4zM215.9 55.7c0 1.4 0 2.9-1.5 2.9s-1.5-1.4-1.5-2.9 0-2.9 1.5-2.9 1.5 1.4 1.5 2.9zm-2.2.1c0 .9-.1 2.1.8 2.1s.8-1.2.8-2.1c0-1.5 0-2.4-.8-2.4s-.8.9-.8 2.4z"/></g><g><path d="M113.1 78.9h-.7v-4.7l-.8.6v-.7c.2-.1.7-.5.9-.7h.6v5.5zM117.5 76.2c0 1.4 0 2.9-1.5 2.9-.8 0-1.4-.6-1.4-1.4h.7c0 .4.2.8.6.8.7 0 .8-.8.8-2.2-.2.4-.5.5-1 .5-.4 0-1.3-.2-1.3-1.8 0-1.2.7-1.7 1.5-1.7 1.6 0 1.6 1.4 1.6 2.9zm-2.3-1.2c0 .6.1 1.2.7 1.2s.7-.6.7-1.2c0-.5-.1-1.2-.7-1.2s-.7.7-.7 1.2zM119.9 76c.8.1 1 .7 1 1.4 0 1-.5 1.6-1.5 1.6s-1.5-.6-1.5-1.6c0-.7.2-1.4 1-1.4-.7-.1-1-.7-1-1.3 0-.9.6-1.4 1.4-1.4.9 0 1.4.5 1.4 1.4.2.6-.1 1.2-.8 1.3zm.3 1.5c0-.5-.1-1.1-.7-1.1-.7 0-.7.6-.7 1.1 0 .5.2 1 .7 1s.7-.6.7-1zm0-2.8c0-.4-.2-.8-.7-.8s-.7.4-.7.8.1 1 .7 1 .7-.6.7-1z"/></g><g><path d="M204.3 76c.8.1 1 .7 1 1.4 0 1-.5 1.6-1.5 1.6s-1.5-.6-1.5-1.6c0-.7.2-1.4 1-1.4-.7-.1-1-.7-1-1.3 0-.9.6-1.4 1.4-1.4.9 0 1.4.5 1.4 1.4.2.6-.1 1.2-.8 1.3zm.3 1.5c0-.5-.1-1.1-.7-1.1s-.7.6-.7 1.1c0 .5.2 1 .7 1s.7-.6.7-1zm-.1-2.8c0-.4-.2-.8-.7-.8s-.7.4-.7.8.1 1 .7 1 .7-.6.7-1zM208.8 76.2c0 1.4 0 2.9-1.5 2.9-.8 0-1.4-.6-1.4-1.4h.7c0 .4.2.8.6.8.7 0 .8-.8.8-2.2-.2.4-.5.5-1 .5-.4 0-1.3-.2-1.3-1.8 0-1.2.7-1.7 1.5-1.7 1.6 0 1.6 1.4 1.6 2.9zm-2.2-1.2c0 .6.1 1.2.7 1.2s.7-.6.7-1.2c0-.5-.1-1.2-.7-1.2s-.7.7-.7 1.2z"/></g><g><path d="M100.3 99.4v-.6c1.6-2.3 2.1-2.7 2.1-3.6 0-.4-.2-.7-.7-.7-.6 0-.7.5-.6.9h-.8c-.1-.9.4-1.5 1.3-1.5 1 0 1.5.5 1.5 1.5 0 1.2-.6 1.7-2.1 3.5h2.2v.6h-2.9zM103.6 98.1v-.6l1.6-3.6h1v3.6h.7v.6h-.7v1.4h-.7v-1.4h-1.9zm1.8-.6v-2.9l-1.2 2.9h1.2zM107.2 96.7c0-1.5 0-2.9 1.5-2.9.8 0 1.4.5 1.4 1.4h-.7c0-.4-.2-.8-.6-.8-.6 0-.8.5-.8 2 .2-.3.5-.5.9-.5.7 0 1.3.4 1.3 1.9 0 1-.4 1.9-1.5 1.9-1.6-.1-1.5-1.6-1.5-3zm1.5 2.3c.6 0 .7-.7.7-1.4 0-.5-.1-1.1-.8-1.1-.6 0-.7.7-.7 1.2s.1 1.3.8 1.3z"/></g><g><path d="M191.7 99.4h-.7v-4.7l-.8.6v-.7c.2-.1.7-.5.9-.7h.6v5.5zM195.1 96.5c.8.1 1 .7 1 1.4 0 1-.5 1.6-1.5 1.6s-1.5-.6-1.5-1.6c0-.7.2-1.4 1-1.4-.7-.1-1-.7-1-1.3 0-.9.6-1.4 1.4-1.4.9 0 1.4.5 1.4 1.4.2.6-.1 1.2-.8 1.3zm.3 1.5c0-.5-.1-1.1-.7-1.1s-.7.6-.7 1.1c0 .5.2 1 .7 1s.7-.6.7-1zm0-2.8c0-.4-.2-.8-.7-.8s-.7.4-.7.8.1 1 .7 1 .7-.6.7-1zM196.7 96.7c0-1.5 0-2.9 1.5-2.9.8 0 1.4.5 1.4 1.4h-.7c0-.4-.2-.8-.6-.8-.6 0-.8.5-.8 2 .2-.3.5-.5.9-.5.7 0 1.3.4 1.3 1.9 0 1-.4 1.9-1.5 1.9-1.6-.1-1.5-1.6-1.5-3zm1.5 2.3c.6 0 .7-.7.7-1.4 0-.5-.1-1.1-.8-1.1-.6 0-.7.7-.7 1.2s.1 1.3.8 1.3z"/></g><g><path d="M95.1 119.9h-.7v-4.7l-.8.6v-.7c.2-.1.7-.5.9-.7h.6v5.5zM96.5 114.4h2.9v.6l-1.5 4.9h-.8l1.6-4.9h-2.1v-.6zM103.1 117.2c0 1.4 0 2.9-1.5 2.9s-1.5-1.4-1.5-2.9 0-2.9 1.5-2.9 1.5 1.4 1.5 2.9zm-2.3.1c0 .9-.1 2.1.8 2.1s.8-1.2.8-2.1c0-1.5 0-2.4-.8-2.4s-.8.9-.8 2.4z"/></g><g><path d="M184.6 119.9h-.7v-4.7l-.8.6v-.7c.2-.1.7-.5.9-.7h.6v5.5zM186 114.4h2.9v.6l-1.5 4.9h-.8l1.6-4.9H186v-.6zM189.5 117.2c0-1.5 0-2.9 1.5-2.9.8 0 1.4.5 1.4 1.4h-.7c0-.4-.2-.8-.6-.8-.6 0-.8.5-.8 2 .2-.3.5-.5.9-.5.7 0 1.3.4 1.3 1.9 0 1-.4 1.9-1.5 1.9-1.5-.1-1.5-1.6-1.5-3zm1.5 2.3c.6 0 .7-.7.7-1.4 0-.5-.1-1.1-.8-1.1-.6 0-.7.7-.7 1.2s.1 1.3.8 1.3z"/></g><g><path d="M76.2 137.5c.8.1 1 .7 1 1.4 0 1-.5 1.6-1.5 1.6s-1.5-.6-1.5-1.6c0-.7.2-1.4 1-1.4-.7-.1-1-.7-1-1.3 0-.9.6-1.4 1.4-1.4.9 0 1.4.5 1.4 1.4.2.6-.1 1.2-.8 1.3zm.3 1.5c0-.5-.1-1.1-.7-1.1s-.8.6-.8 1.1c0 .5.2 1 .7 1s.8-.6.8-1zm0-2.8c0-.4-.2-.8-.7-.8s-.7.4-.7.8.1 1 .7 1 .7-.6.7-1zM78.2 139.6h.8l-.7 1.8h-.5l.4-1.8zM79.4 139.1v-.6l1.6-3.6h1v3.6h.7v.6H82v1.4h-.7v-1.4h-1.9zm1.8-.6v-2.9l-1.2 2.9h1.2zM84.9 137.5c.8.1 1 .7 1 1.4 0 1-.5 1.6-1.5 1.6s-1.5-.6-1.5-1.6c0-.7.2-1.4 1-1.4-.7-.1-1-.7-1-1.3 0-.9.6-1.4 1.4-1.4.9 0 1.4.5 1.4 1.4.1.6-.2 1.2-.8 1.3zm.3 1.5c0-.5-.1-1.1-.7-1.1-.7 0-.7.6-.7 1.1 0 .5.2 1 .7 1s.7-.6.7-1zm-.1-2.8c0-.4-.2-.8-.7-.8s-.7.4-.7.8.1 1 .7 1 .7-.6.7-1zM88.3 137.5c.8.1 1 .7 1 1.4 0 1-.5 1.6-1.5 1.6s-1.5-.6-1.5-1.6c0-.7.2-1.4 1-1.4-.7-.1-1-.7-1-1.3 0-.9.6-1.4 1.4-1.4.9 0 1.4.5 1.4 1.4.2.6-.1 1.2-.8 1.3zm.3 1.5c0-.5-.1-1.1-.7-1.1s-.7.6-.7 1.1c0 .5.2 1 .7 1s.7-.6.7-1zm0-2.8c0-.4-.2-.8-.7-.8s-.7.4-.7.8.1 1 .7 1 .7-.6.7-1z"/></g><g><path d="M163.9 140.4h-.7v-4.7l-.8.6v-.7c.2-.1.7-.5.9-.7h.6v5.5zM167.3 137.5c.8.1 1 .7 1 1.4 0 1-.5 1.6-1.5 1.6s-1.5-.6-1.5-1.6c0-.7.2-1.4 1-1.4-.7-.1-1-.7-1-1.3 0-.9.6-1.4 1.4-1.4.9 0 1.4.5 1.4 1.4.2.6-.1 1.2-.8 1.3zm.3 1.5c0-.5-.1-1.1-.7-1.1-.7 0-.7.6-.7 1.1 0 .5.2 1 .7 1s.7-.6.7-1zm-.1-2.8c0-.4-.2-.8-.7-.8s-.7.4-.7.8.1 1 .7 1 .7-.6.7-1zM169.2 139.6h.8l-.7 1.8h-.5l.4-1.8zM172.5 137.5c.8.1 1 .7 1 1.4 0 1-.5 1.6-1.5 1.6s-1.5-.6-1.5-1.6c0-.7.2-1.4 1-1.4-.7-.1-1-.7-1-1.3 0-.9.6-1.4 1.4-1.4.9 0 1.4.5 1.4 1.4.1.6-.2 1.2-.8 1.3zm.3 1.5c0-.5-.1-1.1-.7-1.1s-.7.6-.7 1.1c0 .5.2 1 .7 1s.7-.6.7-1zm-.1-2.8c0-.4-.2-.8-.7-.8s-.7.4-.7.8.1 1 .7 1 .7-.6.7-1zM177 137.7c0 1.4 0 2.9-1.5 2.9-.8 0-1.4-.6-1.4-1.4h.7c0 .4.2.8.6.8.7 0 .8-.8.8-2.2-.2.4-.5.5-1 .5-.4 0-1.3-.2-1.3-1.8 0-1.2.7-1.7 1.5-1.7 1.6 0 1.6 1.4 1.6 2.9zm-2.3-1.2c0 .6.1 1.2.7 1.2s.7-.6.7-1.2c0-.5-.1-1.2-.7-1.2s-.7.7-.7 1.2zM177.5 140.4v-.6c1.6-2.3 2.1-2.7 2.1-3.6 0-.4-.2-.7-.7-.7-.6 0-.7.5-.6.9h-.8c-.1-.9.4-1.5 1.3-1.5 1 0 1.5.5 1.5 1.5 0 1.2-.6 1.7-2.1 3.5h2.2v.6h-2.9z"/></g></svg>