<svg xmlns="http://www.w3.org/2000/svg" viewBox="-1670.5 1239 84.6 85"><path d="M-1621.4 1308.2c0-5.8 2.5-11 6.5-14.6-1.4-.5-2.7-.9-3.7-1.1-1.4-.3-2.4-1.6-2.4-3 0-.9.6-2.1 1.4-2.7 3.1-2 10.3-8.2 10.3-26.1-.1-9.4-6.1-21.7-20.7-21.7-14.9 0-20.6 12.3-20.6 21.7 0 17.8 7.3 24.1 10.3 26.1.9.6 1.3 1.9 1.4 2.7.2 1.4-1 2.7-2.4 3-7.5 1.6-29.2 11.6-29.2 23.4 0 7.1 20.7 8.1 40.4 8.1 5.5 0 11-.1 16.2-.3-4.6-3.7-7.5-9.3-7.5-15.5z"/><path d="M-1601.7 1292.4c-8.7 0-15.8 7.1-15.8 15.8 0 8.7 7.1 15.8 15.8 15.8 8.7 0 15.8-7.1 15.8-15.8 0-8.7-7-15.8-15.8-15.8zm6.1 17.6h-3.9v3.9c0 1.1-.9 2-2 2s-2-.9-2-2v-3.9h-3.9c-1.1 0-2-.9-2-2s.9-2 2-2h3.9v-3.9c0-1.1.9-2 2-2s2 .9 2 2v3.9h3.9c1.1 0 2 .9 2 2s-.9 2-2 2z"/></svg>